<?xml version="1.0" encoding="utf-8"?>
<!-- Generator: Adobe Illustrator 22.0.0, SVG Export Plug-In . SVG Version: 6.00 Build 0)  -->
<svg version="1.1" id="Layer_1" xmlns="http://www.w3.org/2000/svg" xmlns:xlink="http://www.w3.org/1999/xlink" x="0px" y="0px"
	 viewBox="0 0 27 27" style="enable-background:new 0 0 27 27;" xml:space="preserve">
<style type="text/css">
	.st0{fill:#FFFFFF;}
</style>
<title>Page 1</title>
<desc>Created with Sketch.</desc>
<g id="Symbols">
	<g id="loading" transform="translate(-71.000000, -3.000000)">
		<path id="Page-1" class="st0" d="M84.5,3c-0.4,0-0.8,0.3-0.8,0.8v4.5c0,0.4,0.3,0.8,0.8,0.8s0.8-0.3,0.8-0.8V3.8
			C85.2,3.3,84.9,3,84.5,3z M75.5,6.7c-0.2,0-0.4,0.1-0.5,0.2c-0.3,0.3-0.3,0.8,0,1.1l3.2,3.2c0.3,0.3,0.8,0.3,1.1,0s0.3-0.8,0-1.1
			L76,7C75.9,6.8,75.7,6.7,75.5,6.7z M93.5,6.7c-0.2,0-0.4,0.1-0.5,0.2l-3.2,3.2c-0.3,0.3-0.3,0.8,0,1.1s0.8,0.3,1.1,0L94,8
			c0.3-0.3,0.3-0.8,0-1.1C93.9,6.8,93.7,6.7,93.5,6.7z M71.8,15.8c-0.4,0-0.8,0.3-0.8,0.8s0.3,0.8,0.8,0.8h4.5
			c0.4,0,0.8-0.3,0.8-0.8s-0.3-0.8-0.8-0.8H71.8z M92.8,15.8c-0.4,0-0.8,0.3-0.8,0.8s0.3,0.8,0.8,0.8h4.5c0.4,0,0.8-0.3,0.8-0.8
			s-0.3-0.8-0.8-0.8H92.8z M78.7,21.6c-0.2,0-0.4,0.1-0.5,0.2L75,25c-0.3,0.3-0.3,0.8,0,1.1c0.3,0.3,0.8,0.3,1.1,0l3.2-3.2
			c0.3-0.3,0.3-0.8,0-1.1C79.1,21.7,78.9,21.6,78.7,21.6z M90.3,21.6c-0.2,0-0.4,0.1-0.5,0.2c-0.3,0.3-0.3,0.8,0,1.1L93,26
			c0.3,0.3,0.8,0.3,1.1,0c0.3-0.3,0.3-0.8,0-1.1l-3.2-3.2C90.7,21.7,90.5,21.6,90.3,21.6z M84.5,24c-0.4,0-0.8,0.3-0.8,0.8v4.5
			c0,0.4,0.3,0.8,0.8,0.8s0.8-0.3,0.8-0.8v-4.5C85.2,24.3,84.9,24,84.5,24z"/>
	</g>
</g>
</svg>
