<?xml version="1.0" encoding="UTF-8"?>
<svg width="17px" height="13px" viewBox="0 0 17 13" version="1.1" xmlns="http://www.w3.org/2000/svg" xmlns:xlink="http://www.w3.org/1999/xlink">
    <!-- Generator: Sketch 52.3 (67297) - http://www.bohemiancoding.com/sketch -->
    <title>Fill 2</title>
    <desc>Created with Sketch.</desc>
    <g id="–-Styleguide" stroke="none" stroke-width="1" fill="none" fill-rule="evenodd">
        <g id="Styleguide" transform="translate(-635.000000, -1816.000000)" fill="#D9DCE1">
            <g id="Other" transform="translate(120.000000, 1716.000000)">
                <g id="icon-grid" transform="translate(511.000000, 95.000000)">
                    <g id="Group-5">
                        <path d="M3.99999976,10.9999993 L8.99999946,10.9999993 L8.99999946,4.9999997 L3.99999976,4.9999997 L3.99999976,10.9999993 Z M3.99999976,17.9999989 L8.99999946,17.9999989 L8.99999946,11.9999993 L3.99999976,11.9999993 L3.99999976,17.9999989 Z M9.9999994,17.9999989 L14.9999991,17.9999989 L14.9999991,11.9999993 L9.9999994,11.9999993 L9.9999994,17.9999989 Z M15.999999,17.9999989 L20.9999987,17.9999989 L20.9999987,11.9999993 L15.999999,11.9999993 L15.999999,17.9999989 Z M9.9999994,10.9999993 L14.9999991,10.9999993 L14.9999991,4.9999997 L9.9999994,4.9999997 L9.9999994,10.9999993 Z M15.999999,4.9999997 L15.999999,10.9999993 L20.9999987,10.9999993 L20.9999987,4.9999997 L15.999999,4.9999997 Z" id="Fill-2"></path>
                    </g>
                </g>
            </g>
        </g>
    </g>
</svg>